<svg width="645" height="597" viewBox="0 0 645 597" fill="none" xmlns="http://www.w3.org/2000/svg">
<path d="M116.975 304.416C116.975 304.799 115.828 306.838 114.044 309.897C105.376 324.683 79.7558 364.707 73.3826 374.649C72.4904 376.179 71.9805 376.943 71.9805 376.943C71.9805 376.943 71.853 376.816 71.4706 376.561C65.7348 371.462 10.5428 321.624 16.4061 282.62C22.5244 241.449 85.6192 212.132 85.6192 212.132L112.769 224.369C112.769 224.369 116.593 290.905 116.848 302.759C117.103 303.651 117.103 304.161 116.975 304.416Z" fill="url(#paint0_linear)"/>
<path opacity="0.4" d="M116.975 302.632L114.044 309.77L96.836 351.833C96.836 351.833 84.8544 363.432 73.3826 374.522C72.7453 375.159 72.108 375.796 71.4706 376.434C65.7348 371.335 10.5428 321.497 16.4061 282.493C22.5244 241.322 85.6192 212.005 85.6192 212.005L112.769 224.241C112.897 224.241 116.72 290.778 116.975 302.632Z" fill="#5A200E"/>
<path d="M546.148 287.973C546.148 287.973 528.048 326.595 558.384 382.042C588.721 437.616 530.342 476.111 532.637 494.848C534.931 513.585 558.384 563.296 558.384 563.296C558.384 563.296 504.084 499.054 413.967 490.769C323.85 482.484 276.051 466.168 224.556 372.737C173.06 279.306 237.939 248.205 237.939 248.205C237.939 248.205 305.75 313.721 378.277 312.447C450.804 311.427 546.148 287.973 546.148 287.973Z" fill="url(#paint1_linear)"/>
<path d="M235.644 351.705C235.644 355.147 235.644 358.588 235.517 361.903C235.517 365.217 235.39 368.531 235.262 371.59C234.625 392.239 233.35 406.515 233.35 406.515C231.056 407.025 228.634 407.79 226.085 408.682C193.836 419.771 147.949 452.912 147.949 452.912C79.3734 464.256 45.0855 401.544 45.0855 401.544C41.8989 391.219 40.2419 380.895 39.6045 370.57C39.3496 367.256 39.3496 363.942 39.3496 360.755C39.3496 358.588 39.3496 356.549 39.4771 354.382C40.7517 324.173 50.439 295.239 61.5284 271.53C77.5889 236.86 96.581 213.407 96.581 213.407C96.581 213.407 112.896 208.436 133.801 206.014C163.627 202.7 202.759 204.739 218.054 234.056C219.584 236.988 220.986 240.302 222.388 243.743C229.144 261.716 232.585 285.551 234.242 309.387C234.497 313.466 234.752 317.545 234.88 321.624C235.517 331.821 235.644 342.146 235.644 351.705Z" fill="url(#paint2_linear)"/>
<path opacity="0.4" d="M234.37 309.133C207.73 282.11 211.426 250.244 211.426 250.244L222.516 243.489C229.271 261.461 232.713 285.297 234.37 309.133Z" fill="#5A200E"/>
<path opacity="0.4" d="M189.503 242.978C189.503 242.978 116.466 238.262 61.4014 271.276C77.4619 236.605 96.454 213.152 96.454 213.152C96.454 213.152 112.769 208.181 133.674 205.759L146.93 207.798L187.591 234.438L189.503 242.978Z" fill="#5A200E"/>
<path d="M125.388 464.511C121.437 479.042 114.299 494.848 107.543 509.379C100.023 525.439 92.8848 539.843 91.1003 549.275C87.2764 568.522 42.9189 583.18 31.3196 586.749C30.8098 587.132 30.2999 587.514 29.6626 587.897C11.8176 600.133 6.33666 589.299 6.33666 589.299C-4.24287 584.965 1.62049 572.601 1.62049 572.601C5.69934 559.09 22.1422 564.061 22.1422 564.061L47.1252 544.049C40.2421 524.674 36.6731 506.065 35.271 488.984C30.4274 431.116 49.9294 389.307 49.9294 389.307C49.9294 389.307 51.459 389.69 54.1357 390.582C70.3237 395.553 127.81 415.438 128.575 443.48C128.575 449.98 127.428 457.118 125.388 464.511Z" fill="url(#paint3_linear)"/>
<path opacity="0.4" d="M124.242 464.511C72.6186 459.795 48.4004 394.406 48.4004 394.406L52.8616 390.582C69.0496 395.553 126.536 415.438 127.301 443.48C127.428 449.98 126.281 457.118 124.242 464.511Z" fill="#5A200E"/>
<path d="M266.364 584.328C265.472 595.417 253.745 592.485 253.745 592.485C248.519 599.496 241.508 594.78 241.508 594.78C225.958 604.722 221.369 578.719 214.613 567.248C208.368 556.796 205.054 551.697 181.345 521.36C179.306 518.811 177.139 516.007 174.845 513.075C160.824 495.23 154.195 477.003 151.136 462.854C147.695 447.049 148.714 436.342 148.714 436.342C148.714 436.342 215.123 374.139 239.724 402.691C242.018 405.241 243.803 408.682 245.46 412.634C252.853 430.733 254 461.197 253.235 489.494C252.343 523.018 248.519 553.481 248.774 556.796C249.411 563.679 267.256 573.238 266.364 584.328Z" fill="url(#paint4_linear)"/>
<path opacity="0.4" d="M239.723 402.819C242.018 405.368 243.802 408.809 245.459 412.761C229.271 417.859 181.855 434.557 151.518 462.727C151.391 462.854 151.263 462.854 151.263 462.982C147.822 447.176 148.841 436.469 148.841 436.469C148.841 436.469 215.25 374.267 239.723 402.819Z" fill="#5A200E"/>
<path d="M235.518 361.903C235.008 387.778 233.351 406.515 233.351 406.515C201.357 414.418 147.95 452.912 147.95 452.912C79.3739 464.256 45.086 401.544 45.086 401.544C41.0072 388.033 39.2227 374.267 39.2227 360.755C67.0098 358.079 147.95 352.215 235.518 361.903Z" fill="url(#paint5_linear)"/>
<path d="M235.644 351.705C235.644 355.147 235.644 358.588 235.517 361.903C235.517 365.217 235.39 368.531 235.262 371.59C165.922 363.815 57.9594 369.423 39.6045 370.443C39.3496 367.129 39.3496 363.815 39.3496 360.628C39.3496 358.461 39.3496 356.422 39.4771 354.255C96.4536 339.979 203.778 348.646 235.644 351.705Z" fill="url(#paint6_linear)"/>
<path d="M263.177 224.879C263.177 224.879 312.251 311.427 391.151 283.895C470.051 256.362 559.531 98.0518 644.932 323.154C644.932 323.154 581.2 306.838 474.767 347.117C368.335 387.396 271.972 285.679 254.382 246.548L263.177 224.879Z" fill="url(#paint7_linear)"/>
<path opacity="0.4" d="M235.645 351.706C235.645 355.147 235.645 358.589 235.518 361.903C235.518 365.217 235.39 368.531 235.263 371.59C234.625 392.239 233.351 406.515 233.351 406.515C231.056 407.025 228.635 407.79 226.085 408.682C219.712 402.309 213.976 394.024 212.829 384.209C210.407 363.305 229.527 329.782 235.008 321.369C235.518 331.821 235.645 342.146 235.645 351.706Z" fill="#5A200E"/>
<path d="M268.021 365.981C256.422 374.394 246.862 380.002 246.225 380.385C246.862 380.257 255.53 379.365 261.52 384.209C262.795 385.229 263.815 386.376 264.707 387.905C264.707 387.905 271.845 379.875 276.306 391.729C280.767 403.583 268.531 411.996 257.951 411.741C247.244 411.486 224.046 411.104 218.947 385.356C217.928 380.512 218.31 374.776 219.457 368.786C220.732 362.412 222.899 355.529 225.448 348.901C226.978 345.077 228.507 341.381 230.164 337.939C237.175 322.771 244.695 310.789 244.695 310.789C244.695 310.789 180.453 249.097 224.301 232.399C268.148 215.701 283.317 254.068 283.317 254.068C283.317 254.068 308.427 288.866 309.574 315.761C310.212 329.527 293.514 346.224 277.071 359.098C274.012 361.52 270.953 363.815 268.021 365.981Z" fill="url(#paint8_linear)"/>
<path d="M268.02 365.982C256.421 374.394 246.861 380.003 246.224 380.385C246.861 380.258 255.529 379.365 261.52 384.209C253.362 385.611 237.556 388.16 235.007 385.994C232.968 384.209 225.065 375.669 219.329 368.786C220.604 362.413 222.771 355.53 225.32 348.902C226.849 345.078 228.379 341.381 230.036 337.94C239.596 344.058 260.118 356.167 276.943 359.099C274.011 361.52 270.952 363.815 268.02 365.982Z" fill="url(#paint9_linear)"/>
<path d="M257.951 411.741C247.244 411.486 224.045 411.104 218.947 385.356C216.907 375.286 220.476 361.648 225.447 348.901C234.625 355.147 251.578 364.962 268.021 365.854C256.039 374.522 246.224 380.257 246.224 380.257C246.224 380.257 259.225 378.473 264.834 387.905C264.834 387.905 271.972 379.875 276.433 391.729C280.894 403.583 268.53 412.123 257.951 411.741Z" fill="url(#paint10_linear)"/>
<path d="M154.577 262.736L118.122 259.294C116.975 259.167 115.828 259.549 115.063 260.314L96.8357 276.757C95.4336 277.904 95.0512 279.943 95.816 281.473L113.406 318.565C114.426 320.732 117.23 321.624 119.269 320.222L158.018 295.111C159.293 294.347 159.93 292.945 159.803 291.415L158.146 266.432C158.146 264.52 156.616 262.991 154.577 262.736Z" fill="url(#paint11_linear)"/>
<path d="M147.567 291.033L140.429 297.406L139.409 293.199L118.505 311.172L117.23 298.808L145.91 278.031L147.567 291.033Z" fill="url(#paint12_linear)"/>
<path d="M145.4 270.128L114.681 293.327L109.71 273.06L115.956 269.364L118.505 278.541L132.399 268.599L145.4 270.128Z" fill="url(#paint13_linear)"/>
<path d="M95.689 363.05C99.003 376.689 111.622 385.356 124.113 382.297C136.605 379.238 143.87 365.854 140.684 352.216C137.37 338.577 124.751 329.909 112.259 332.969C99.7678 336.028 92.3749 349.411 95.689 363.05Z" fill="url(#paint14_linear)"/>
<path d="M98.6212 362.285C101.935 375.924 114.809 384.464 127.301 381.532C139.92 378.473 147.44 364.962 144.253 351.451C140.939 337.812 128.065 329.272 115.574 332.204C102.955 335.135 95.3071 348.647 98.6212 362.285Z" fill="url(#paint15_linear)"/>
<path d="M119.907 360.628L128.447 360.373L128.32 357.952L128.192 355.147L119.652 355.402L119.525 349.539L130.869 349.156L130.742 343.676L112.642 344.185L113.024 355.53L113.406 366.619L113.534 372.1L120.289 371.845L120.162 367.766L119.907 360.628Z" fill="url(#paint16_linear)"/>
<path d="M107.543 509.379C100.023 525.439 92.8848 539.843 91.1003 549.275C87.2764 568.522 42.9189 583.181 31.3196 586.75C30.8098 587.132 30.2999 587.514 29.6626 587.897C11.8176 600.133 6.33666 589.299 6.33666 589.299C-4.24287 584.965 1.62049 572.601 1.62049 572.601C5.69934 559.09 22.1422 564.061 22.1422 564.061L47.1252 544.049C40.2421 524.674 36.6731 506.065 35.271 488.985C45.2132 477.385 56.5576 465.276 61.0188 465.149C66.8822 464.894 92.7574 492.936 107.543 509.379Z" fill="url(#paint17_linear)"/>
<path d="M266.363 584.328C265.471 595.417 253.744 592.485 253.744 592.485C248.518 599.496 241.508 594.78 241.508 594.78C225.957 604.722 221.368 578.719 214.613 567.247C208.367 556.795 205.053 551.697 181.345 521.36C189.375 507.467 209.897 473.306 220.986 469.61C227.869 467.316 241.38 478.022 253.107 489.367C252.215 522.89 248.391 553.354 248.646 556.668C249.411 563.678 267.256 573.238 266.363 584.328Z" fill="url(#paint18_linear)"/>
<path opacity="0.4" d="M251.705 412.251L250.686 411.231C250.94 411.104 251.195 411.104 251.195 411.104L251.705 412.251Z" fill="#5A200E"/>
<path d="M98.4932 55.7336C97.7284 58.2829 97.2186 60.9596 96.8362 63.6364C96.4538 65.8032 96.3263 68.0976 96.1989 70.392C96.0714 73.4511 96.3263 76.6377 96.9636 79.6968C97.346 81.4813 98.1108 82.501 99.258 83.0109C107.033 86.9623 131.889 65.5483 147.312 51.2723C151.901 46.9385 155.725 43.3695 157.892 41.2027C159.166 39.8005 160.058 39.0358 160.058 39.0358C160.058 39.0358 159.549 38.1435 158.529 36.6139C157.254 34.8294 155.342 32.1527 152.665 29.0936C149.861 26.1619 146.292 22.8478 141.831 20.0436C129.467 12.0134 124.751 -1.62531 119.78 0.159187C114.936 1.81622 112.259 26.4168 108.69 32.2802C106.396 35.7217 101.425 44.8991 98.4932 55.7336Z" fill="url(#paint19_linear)"/>
<path d="M140.301 51.1448C140.301 51.1448 142.468 38.9082 130.996 29.0935C119.525 19.2787 122.839 16.4745 120.927 15.3273C118.887 14.1802 117.485 30.2406 117.485 30.2406C117.485 30.2406 103.082 49.7427 106.906 69.4996C110.73 89.2566 140.301 51.1448 140.301 51.1448Z" fill="url(#paint20_linear)"/>
<path opacity="0.4" d="M96.8362 63.6365C96.4538 65.8034 96.3263 68.0977 96.1989 70.3921C96.0714 73.4512 96.3263 76.6378 96.9636 79.697C97.346 81.4815 98.1108 82.5012 99.258 83.011C107.033 86.9624 131.889 65.5484 147.312 51.2724L147.822 42.3499V42.9873C147.822 42.9873 144.635 40.3105 139.027 39.8007C131.761 39.1633 120.29 42.4774 106.523 60.0675C106.269 60.3224 106.014 60.7048 105.759 61.0872C105.504 61.2146 101.552 61.9794 96.8362 63.6365Z" fill="#5A200E"/>
<path d="M228.507 54.7138C228.507 54.7138 236.027 79.8242 244.95 99.3262C251.96 114.877 259.736 126.858 265.217 119.975C266.619 118.318 267.766 116.534 268.786 114.622C277.453 99.3262 277.326 78.677 276.943 72.5587C276.561 65.6757 285.611 42.7321 282.169 39.0357C279.365 36.104 272.227 41.4575 262.285 44.5166C259.481 45.4089 256.549 46.0462 253.362 46.3011C244.185 47.0659 236.665 50.2525 232.458 52.4194C229.909 53.8215 228.507 54.7138 228.507 54.7138Z" fill="url(#paint21_linear)"/>
<path d="M240.106 74.5982C240.106 74.5982 243.93 62.744 258.589 59.4299C273.247 56.1159 271.718 52.037 274.012 51.9095C276.306 51.9095 270.061 66.6954 270.061 66.6954C270.061 66.6954 273.63 90.7861 261.138 106.464C248.647 122.142 240.106 74.5982 240.106 74.5982Z" fill="url(#paint22_linear)"/>
<path d="M272.354 177.462C271.462 179.119 270.442 180.776 269.423 182.433C268.913 183.198 268.276 184.09 267.766 184.855C267.256 185.62 266.746 186.257 266.109 187.022C265.854 187.404 265.599 187.659 265.344 188.041C264.834 188.679 264.324 189.316 263.687 190.081C263.049 190.846 262.412 191.61 261.647 192.248C261.52 192.375 261.265 192.63 261.137 192.758C260.755 193.14 260.5 193.395 260.118 193.777C259.735 194.16 259.353 194.542 258.843 195.052C258.461 195.434 258.078 195.817 257.569 196.199C257.186 196.581 256.676 196.964 256.294 197.346L256.166 197.474C255.274 198.239 254.509 198.876 253.617 199.641C253.107 200.023 252.725 200.405 252.215 200.788C250.813 201.808 249.411 202.827 247.881 203.847C247.754 203.974 247.754 203.974 247.626 203.974C246.989 204.484 246.224 204.867 245.459 205.249C244.95 205.631 244.312 205.886 243.802 206.269C243.675 206.396 243.42 206.524 243.293 206.651C242.528 207.034 241.763 207.543 240.998 207.926C240.233 208.308 239.469 208.818 238.704 209.2C237.429 209.838 236.027 210.475 234.625 211.112C234.243 211.24 233.733 211.495 233.35 211.622C231.693 212.387 230.164 213.024 228.379 213.662C226.85 214.172 225.448 214.809 223.918 215.319C213.466 218.888 202.886 220.927 192.434 221.692C190.65 221.819 188.865 221.947 187.081 222.074C186.571 222.074 186.189 222.074 185.679 222.074C184.404 222.074 183.002 222.074 181.727 222.074C180.453 222.074 179.305 222.074 178.158 222.074C177.776 222.074 177.266 222.074 176.884 222.074C175.991 222.074 175.099 221.947 174.207 221.947C174.079 221.947 173.952 221.947 173.825 221.947C172.805 221.947 171.913 221.819 170.893 221.692C170.383 221.692 170.001 221.564 169.491 221.564C168.726 221.564 167.961 221.437 167.324 221.31C167.196 221.31 167.069 221.31 166.941 221.31C166.559 221.31 166.177 221.182 165.794 221.182C165.03 221.055 164.265 221.055 163.5 220.927C163.372 220.927 163.118 220.927 162.99 220.8C162.608 220.8 162.353 220.672 161.97 220.672C160.951 220.545 160.058 220.29 159.039 220.162C158.911 220.162 158.784 220.162 158.656 220.035C157.509 219.78 156.234 219.653 155.087 219.398C153.43 219.015 151.773 218.76 150.116 218.378C140.301 216.084 130.869 212.769 122.074 208.691C110.602 203.337 100.023 196.709 91.1003 189.189C89.4432 187.786 87.7862 186.257 86.2566 184.855C84.5996 183.325 83.07 181.796 81.6679 180.266C80.0109 178.609 78.4813 176.697 77.0792 174.913C68.794 163.951 64.0779 150.822 62.9307 137.311C60.7638 111.563 71.8532 84.6679 96.1988 70.5194C99.258 68.7349 102.445 67.2053 105.886 65.8032C105.886 65.8032 106.014 65.5483 106.396 65.0384C108.308 61.5969 116.083 47.8308 133.801 40.1829C135.203 39.5456 136.732 38.9083 138.262 38.3984C138.517 38.271 138.772 38.271 139.027 38.1435C144.253 36.4865 150.116 35.0843 156.744 34.447C157.254 34.3196 157.764 34.3196 158.274 34.3196C162.863 33.9372 167.706 33.8097 173.06 34.0646C178.158 34.3196 183.767 34.9569 189.63 35.8491C209.26 39.1632 222.898 46.5561 232.586 52.5469C238.831 56.3709 243.42 60.5772 246.989 65.1659C251.578 71.0292 254.382 77.275 256.421 83.5207C258.843 90.5313 260.373 97.5418 262.922 104.042C264.452 107.866 266.236 111.435 268.785 114.749C269.04 115.132 269.295 115.387 269.55 115.769C281.532 129.918 284.336 155.156 272.354 177.462Z" fill="url(#paint23_linear)"/>
<path d="M283.316 254.068C283.316 254.068 264.451 234.948 214.23 241.959C164.009 248.969 153.175 235.203 153.175 235.203C116.975 255.98 82.6873 222.967 82.6873 222.967C77.9711 215.064 78.0986 206.779 80.0106 199.258C81.4127 193.777 83.8345 188.679 86.2563 184.727C89.5704 179.246 92.757 175.677 92.757 175.677C92.757 175.677 127.172 178.099 164.009 181.286C192.944 183.835 223.28 187.022 239.723 189.953C246.096 191.101 251.577 193.777 256.294 197.346C279.11 214.809 283.316 254.068 283.316 254.068Z" fill="url(#paint24_linear)"/>
<path opacity="0.4" d="M158.274 216.721C155.597 217.358 152.92 217.996 150.244 218.378C115.063 224.241 91.61 209.583 80.0108 199.386C81.4129 193.905 83.8347 188.806 86.2565 184.855C84.5995 183.325 83.0699 181.796 81.6678 180.266C80.0108 178.609 78.4812 176.697 77.0791 174.913L80.5206 164.971L113.789 144.194C113.789 144.194 127.937 152.352 142.596 163.186C143.106 163.568 143.615 163.823 143.998 164.206C148.077 167.265 152.028 170.451 155.852 173.638C158.784 176.187 161.46 178.737 164.01 181.286C177.903 195.944 183.257 210.603 158.274 216.721Z" fill="#5A200E"/>
<path d="M269.423 182.56C268.913 183.325 268.275 184.217 267.766 184.982C267.256 185.747 266.746 186.384 266.109 187.149C265.854 187.532 265.599 187.786 265.344 188.169C264.834 188.806 264.324 189.443 263.687 190.208C263.049 190.973 262.412 191.738 261.647 192.375C261.52 192.503 261.265 192.758 261.137 192.885C260.755 193.267 260.5 193.522 260.118 193.905C259.735 194.287 259.353 194.67 258.843 195.179C258.461 195.562 258.078 195.944 257.568 196.327C257.186 196.709 256.676 197.091 256.294 197.474L256.166 197.601C255.274 198.366 254.509 199.003 253.617 199.768C253.107 200.15 252.725 200.533 252.215 200.915C250.813 201.935 249.411 202.955 247.881 203.974C247.754 204.102 247.754 204.102 247.626 204.102C246.989 204.612 246.224 204.994 245.459 205.377C244.95 205.759 244.312 206.014 243.802 206.396C243.675 206.524 243.42 206.651 243.292 206.779C242.528 207.161 241.763 207.671 240.998 208.053C240.233 208.436 239.469 208.946 238.704 209.328C237.429 209.965 236.027 210.603 234.625 211.24C234.243 211.367 233.733 211.622 233.35 211.75C231.693 212.515 230.164 213.152 228.379 213.789C226.85 214.299 225.447 214.936 223.918 215.446C213.466 219.015 202.886 221.055 192.434 221.819C190.65 221.947 188.865 222.074 187.081 222.202C186.571 222.202 186.189 222.202 185.679 222.202C184.404 222.202 183.002 222.202 181.727 222.202C180.453 222.202 179.305 222.202 178.158 222.202C177.776 222.202 177.266 222.202 176.884 222.202C175.991 222.202 175.099 222.074 174.207 222.074C174.079 222.074 173.952 222.074 173.824 222.074C172.805 222.074 171.913 221.947 170.893 221.819C170.383 221.819 170.001 221.692 169.491 221.692C168.726 221.692 167.961 221.564 167.324 221.437C167.196 221.437 167.069 221.437 166.941 221.437C166.559 221.437 166.177 221.31 165.794 221.31C165.029 221.182 164.265 221.182 163.5 221.055C163.372 221.055 163.118 221.055 162.99 220.927C162.608 220.927 162.353 220.8 161.97 220.8C160.951 220.672 160.058 220.417 159.039 220.29C158.911 220.29 158.784 220.29 158.656 220.162C157.509 219.907 156.234 219.78 155.087 219.525C153.43 219.143 151.773 218.888 150.116 218.505C140.301 216.211 130.869 212.897 122.074 208.818C110.602 203.465 100.023 196.836 91.1002 189.316C89.4432 187.914 87.7862 186.384 86.2566 184.982C84.5996 183.453 83.07 181.923 81.6679 180.394C80.0109 178.737 78.4813 176.825 77.0792 175.04C68.794 164.078 64.0778 150.949 62.9307 137.438C67.137 136.036 71.8532 134.761 77.2066 133.614C91.3552 130.428 109.328 128.643 130.104 130.683C130.104 130.683 139.792 119.211 162.608 124.437C185.041 129.535 194.346 145.213 194.346 145.213C194.346 145.213 194.474 145.213 194.729 145.341C196.131 145.596 201.102 146.616 207.857 148.4C209.642 148.91 211.426 149.42 213.338 149.93C215.25 150.567 217.417 151.204 219.457 151.842C221.496 152.479 223.536 153.244 225.702 154.008C225.83 154.008 225.957 154.136 225.957 154.136C226.34 154.263 226.595 154.391 226.977 154.518C227.487 154.773 228.124 154.901 228.634 155.156C229.016 155.283 229.526 155.538 229.909 155.665C230.419 155.793 230.928 156.048 231.438 156.303C232.331 156.685 233.223 157.068 233.988 157.45C236.792 158.725 239.596 159.999 242.273 161.401C242.91 161.656 243.42 162.039 244.057 162.294C253.617 167.392 262.54 173.893 268.658 181.796C269.04 181.923 269.168 182.178 269.423 182.56Z" fill="url(#paint25_linear)"/>
<path d="M135.712 115.514C143.315 115.514 149.479 109.351 149.479 101.748C149.479 94.1454 143.315 87.9821 135.712 87.9821C128.11 87.9821 121.946 94.1454 121.946 101.748C121.946 109.351 128.11 115.514 135.712 115.514Z" fill="#5A200E"/>
<path d="M143.233 105.572C145.697 105.572 147.694 103.575 147.694 101.111C147.694 98.6471 145.697 96.6498 143.233 96.6498C140.769 96.6498 138.771 98.6471 138.771 101.111C138.771 103.575 140.769 105.572 143.233 105.572Z" fill="white"/>
<path d="M156.234 152.606C155.469 152.606 154.704 152.479 154.067 151.969C151.518 150.057 144.89 144.576 145.909 139.605C147.184 133.487 171.402 138.84 169.618 145.723C168.216 151.332 159.548 152.479 156.234 152.606Z" fill="#5A200E"/>
<path d="M172.677 162.804C168.853 164.843 165.922 165.48 163.627 165.225C163.5 165.225 163.5 165.225 163.372 165.225C155.597 163.951 155.342 152.097 155.342 152.097C150.881 161.147 146.802 162.294 143.615 160.764C143.105 160.509 142.723 160.254 142.341 159.999C139.536 157.96 137.752 154.263 137.752 154.263" stroke="#5A200E" stroke-miterlimit="10" stroke-linecap="round"/>
<path d="M142.341 159.872C142.723 165.99 144.253 173.511 149.734 175.04C155.342 176.57 160.441 170.451 163.755 165.225C163.627 165.225 163.627 165.225 163.5 165.225C155.725 163.951 155.47 152.097 155.47 152.097C151.008 161.147 146.93 162.294 143.743 160.764C143.233 160.509 142.723 160.127 142.341 159.872Z" fill="url(#paint26_linear)"/>
<path d="M157.127 81.2263C155.342 84.1579 148.841 83.6481 142.468 79.9516C136.095 76.2552 132.399 70.7742 134.183 67.8425C135.968 64.9109 142.468 65.4207 148.841 69.1172C155.215 72.8136 158.911 78.2946 157.127 81.2263Z" fill="url(#paint27_linear)"/>
<path d="M196.513 90.9136C196.131 94.3551 201.612 97.9241 208.877 98.8164C216.142 99.7086 222.388 97.6692 222.771 94.2277C223.153 90.7861 217.672 87.2171 210.407 86.3249C203.141 85.4326 196.895 87.4721 196.513 90.9136Z" fill="url(#paint28_linear)"/>
<path d="M192.435 118.573C192.435 118.573 205.054 109.778 217.163 118.064" stroke="#5A200E" stroke-width="3" stroke-miterlimit="10" stroke-linecap="round"/>
<path d="M186.443 158.597C186.443 158.597 201.484 162.294 194.219 173.638C194.219 173.51 180.835 173.383 186.443 158.597Z" fill="#498F33"/>
<path d="M197.788 156.813C197.788 156.813 187.209 139.478 204.544 135.781C204.544 135.781 216.908 148.273 197.788 156.813Z" fill="#498F33"/>
<path d="M228.379 161.401C228.379 161.401 223.153 143.174 254.637 148.145C254.637 148.273 236.665 173.511 228.379 161.401Z" fill="url(#paint29_linear)"/>
<path d="M124.751 168.922C124.751 168.922 152.411 159.235 224.173 155.921" stroke="#5A200E" stroke-width="3" stroke-miterlimit="10" stroke-linecap="round"/>
<path d="M227.87 152.224C227.87 152.224 245.077 153.626 247.499 171.726C247.499 171.726 221.879 170.706 227.487 152.224H227.87V152.224Z" fill="url(#paint30_linear)"/>
<path d="M243.292 137.056C243.292 137.056 245.969 161.656 224.428 157.578C224.428 157.578 228.507 144.704 243.292 137.056Z" fill="url(#paint31_linear)"/>
<path d="M221.241 153.244C221.241 153.244 216.525 161.784 223.791 168.03C231.056 174.275 232.458 178.099 232.458 178.099C232.458 178.099 243.802 154.008 221.241 153.244Z" fill="url(#paint32_linear)"/>
<path d="M236.154 136.546C236.154 136.546 233.35 140.497 228.634 142.027C223.918 143.557 221.368 145.086 219.456 151.842C217.417 158.597 224.555 161.147 229.271 158.597C232.968 156.558 235.262 145.851 236.154 136.546Z" fill="url(#paint33_linear)"/>
<defs>
<linearGradient id="paint0_linear" x1="121.399" y1="322.97" x2="37.8065" y2="258.258" gradientUnits="userSpaceOnUse">
<stop offset="2.13112e-07" stop-color="#232755"/>
<stop offset="1" stop-color="#263688"/>
</linearGradient>
<linearGradient id="paint1_linear" x1="405.56" y1="302.284" x2="371.656" y2="485.248" gradientUnits="userSpaceOnUse">
<stop offset="0.1802" stop-color="#5D1211"/>
<stop offset="1" stop-color="#BF1818"/>
</linearGradient>
<linearGradient id="paint2_linear" x1="247.073" y1="409.376" x2="72.564" y2="274.284" gradientUnits="userSpaceOnUse">
<stop offset="2.13112e-07" stop-color="#232755"/>
<stop offset="1" stop-color="#263688"/>
</linearGradient>
<linearGradient id="paint3_linear" x1="133.369" y1="542.032" x2="57.7372" y2="502.73" gradientUnits="userSpaceOnUse">
<stop offset="2.13112e-07" stop-color="#232755"/>
<stop offset="1" stop-color="#263688"/>
</linearGradient>
<linearGradient id="paint4_linear" x1="171.003" y1="538.21" x2="243.486" y2="485.602" gradientUnits="userSpaceOnUse">
<stop offset="2.13112e-07" stop-color="#232755"/>
<stop offset="1" stop-color="#263688"/>
</linearGradient>
<linearGradient id="paint5_linear" x1="44.9793" y1="492.046" x2="169.067" y2="344.693" gradientUnits="userSpaceOnUse">
<stop offset="0.1802" stop-color="#5D1211"/>
<stop offset="1" stop-color="#BF1818"/>
</linearGradient>
<linearGradient id="paint6_linear" x1="141.982" y1="395.561" x2="130.68" y2="306.32" gradientUnits="userSpaceOnUse">
<stop offset="1.06556e-07" stop-color="#F6A123"/>
<stop offset="1" stop-color="#FDC21E"/>
</linearGradient>
<linearGradient id="paint7_linear" x1="466.722" y1="424.673" x2="445.093" y2="247.555" gradientUnits="userSpaceOnUse">
<stop offset="1.06556e-07" stop-color="#EB5970"/>
<stop offset="1" stop-color="#BF1818"/>
</linearGradient>
<linearGradient id="paint8_linear" x1="339.024" y1="366.748" x2="249.78" y2="320.372" gradientUnits="userSpaceOnUse">
<stop offset="2.13112e-07" stop-color="#232755"/>
<stop offset="1" stop-color="#263688"/>
</linearGradient>
<linearGradient id="paint9_linear" x1="216.965" y1="395.429" x2="254.105" y2="351.324" gradientUnits="userSpaceOnUse">
<stop offset="0.1802" stop-color="#5D1211"/>
<stop offset="1" stop-color="#BF1818"/>
</linearGradient>
<linearGradient id="paint10_linear" x1="214.206" y1="419.213" x2="256.294" y2="369.234" gradientUnits="userSpaceOnUse">
<stop offset="1.06556e-07" stop-color="#F6A123"/>
<stop offset="1" stop-color="#FDC21E"/>
</linearGradient>
<linearGradient id="paint11_linear" x1="163.615" y1="343.685" x2="117.967" y2="259.064" gradientUnits="userSpaceOnUse">
<stop offset="2.18439e-07" stop-color="#5D1211"/>
<stop offset="1" stop-color="#BF1818"/>
</linearGradient>
<linearGradient id="paint12_linear" x1="134.804" y1="296.693" x2="120.316" y2="284.995" gradientUnits="userSpaceOnUse">
<stop offset="1.06556e-07" stop-color="#F6A123"/>
<stop offset="1" stop-color="#FDC21E"/>
</linearGradient>
<linearGradient id="paint13_linear" x1="126.813" y1="279.126" x2="106.848" y2="263.006" gradientUnits="userSpaceOnUse">
<stop offset="1.06556e-07" stop-color="#F6A123"/>
<stop offset="1" stop-color="#FDC21E"/>
</linearGradient>
<linearGradient id="paint14_linear" x1="120.069" y1="357.715" x2="172.275" y2="360.186" gradientUnits="userSpaceOnUse">
<stop offset="1.06556e-07" stop-color="#F6A123"/>
<stop offset="1" stop-color="#FDC21E"/>
</linearGradient>
<linearGradient id="paint15_linear" x1="131.307" y1="401.365" x2="123.153" y2="364.481" gradientUnits="userSpaceOnUse">
<stop offset="1.06556e-07" stop-color="#F6A123"/>
<stop offset="1" stop-color="#FDC21E"/>
</linearGradient>
<linearGradient id="paint16_linear" x1="104.736" y1="362.728" x2="144.903" y2="346.559" gradientUnits="userSpaceOnUse">
<stop offset="1.06556e-07" stop-color="#FEF5D6"/>
<stop offset="1" stop-color="white"/>
</linearGradient>
<linearGradient id="paint17_linear" x1="88.9736" y1="576.689" x2="42.2097" y2="534.212" gradientUnits="userSpaceOnUse">
<stop offset="0.1802" stop-color="#5D1211"/>
<stop offset="1" stop-color="#BF1818"/>
</linearGradient>
<linearGradient id="paint18_linear" x1="187.227" y1="574.992" x2="255.139" y2="519.287" gradientUnits="userSpaceOnUse">
<stop offset="0.1802" stop-color="#5D1211"/>
<stop offset="1" stop-color="#BF1818"/>
</linearGradient>
<linearGradient id="paint19_linear" x1="126.825" y1="-11.4043" x2="128.1" y2="62.1029" gradientUnits="userSpaceOnUse">
<stop offset="1.06556e-07" stop-color="#F6A123"/>
<stop offset="1" stop-color="#FDC21E"/>
</linearGradient>
<linearGradient id="paint20_linear" x1="140.482" y1="32.0043" x2="100.571" y2="54.8551" gradientUnits="userSpaceOnUse">
<stop offset="1.06556e-07" stop-color="#FEF5D6"/>
<stop offset="1" stop-color="white"/>
</linearGradient>
<linearGradient id="paint21_linear" x1="255.41" y1="27.316" x2="256.688" y2="101.035" gradientUnits="userSpaceOnUse">
<stop offset="1.06556e-07" stop-color="#F6A123"/>
<stop offset="1" stop-color="#FDC21E"/>
</linearGradient>
<linearGradient id="paint22_linear" x1="248.964" y1="57.5326" x2="273.613" y2="96.3599" gradientUnits="userSpaceOnUse">
<stop offset="1.06556e-07" stop-color="#FEF5D6"/>
<stop offset="1" stop-color="white"/>
</linearGradient>
<linearGradient id="paint23_linear" x1="214.457" y1="15.7759" x2="159.35" y2="172.297" gradientUnits="userSpaceOnUse">
<stop offset="1.06556e-07" stop-color="#F6A123"/>
<stop offset="1" stop-color="#FDC21E"/>
</linearGradient>
<linearGradient id="paint24_linear" x1="192.166" y1="171.959" x2="170.209" y2="286.319" gradientUnits="userSpaceOnUse">
<stop offset="0.1802" stop-color="#5D1211"/>
<stop offset="1" stop-color="#BF1818"/>
</linearGradient>
<linearGradient id="paint25_linear" x1="187.265" y1="243.707" x2="158.069" y2="130.484" gradientUnits="userSpaceOnUse">
<stop offset="1.06556e-07" stop-color="#FEF5D6"/>
<stop offset="1" stop-color="white"/>
</linearGradient>
<linearGradient id="paint26_linear" x1="142.789" y1="159.204" x2="162.879" y2="168.151" gradientUnits="userSpaceOnUse">
<stop offset="1.06556e-07" stop-color="#EB5970"/>
<stop offset="1" stop-color="#BF1818"/>
</linearGradient>
<linearGradient id="paint27_linear" x1="126.08" y1="91.6706" x2="149.551" y2="71.2526" gradientUnits="userSpaceOnUse">
<stop offset="1.06556e-07" stop-color="#FEF5D6"/>
<stop offset="1" stop-color="white"/>
</linearGradient>
<linearGradient id="paint28_linear" x1="214.863" y1="117.999" x2="208.581" y2="87.5298" gradientUnits="userSpaceOnUse">
<stop offset="1.06556e-07" stop-color="#FEF5D6"/>
<stop offset="1" stop-color="white"/>
</linearGradient>
<linearGradient id="paint29_linear" x1="268.06" y1="142.738" x2="218.203" y2="164.281" gradientUnits="userSpaceOnUse">
<stop offset="1.06556e-07" stop-color="#EB5970"/>
<stop offset="1" stop-color="#BF1818"/>
</linearGradient>
<linearGradient id="paint30_linear" x1="250.28" y1="156.451" x2="224.266" y2="167.691" gradientUnits="userSpaceOnUse">
<stop offset="1.06556e-07" stop-color="#EB5970"/>
<stop offset="1" stop-color="#BF1818"/>
</linearGradient>
<linearGradient id="paint31_linear" x1="257.756" y1="138.895" x2="214.509" y2="157.582" gradientUnits="userSpaceOnUse">
<stop offset="1.06556e-07" stop-color="#EB5970"/>
<stop offset="1" stop-color="#BF1818"/>
</linearGradient>
<linearGradient id="paint32_linear" x1="241.331" y1="159.465" x2="217.656" y2="169.695" gradientUnits="userSpaceOnUse">
<stop offset="1.06556e-07" stop-color="#EB5970"/>
<stop offset="1" stop-color="#BF1818"/>
</linearGradient>
<linearGradient id="paint33_linear" x1="242.181" y1="149.932" x2="212.391" y2="145.274" gradientUnits="userSpaceOnUse">
<stop offset="1.06556e-07" stop-color="#EB5970"/>
<stop offset="1" stop-color="#BF1818"/>
</linearGradient>
</defs>
</svg>
